HIERARCHY
ROOT Hips
{
  OFFSET 119.563 100.83 105.277
  CHANNELS 6 Xposition Yposition Zposition Zrotation Xrotation Yrotation
  JOINT RightUpLeg
  {
    OFFSET -8.9458 -8.66707 0.101652
    CHANNELS 3 Zrotation Xrotation Yrotation
    JOINT RightLeg
    {
      OFFSET 0 -44.4227 1.3727
      CHANNELS 3 Zrotation Xrotation Yrotation
      JOINT RightFoot
      {
        OFFSET 0.253549 -42.0924 -1.46059
        CHANNELS 3 Zrotation Xrotation Yrotation
        JOINT RightToes
        {
          OFFSET 0.04 -4.41509 8.4991
          CHANNELS 3 Zrotation Xrotation Yrotation
          End Site
          {
            OFFSET -0.08 -0.137448 9.77979
          }
        }
      }
    }
  }
  JOINT Spine
  {
    OFFSET 0 11.8905 0
    CHANNELS 3 Zrotation Xrotation Yrotation
    JOINT Spine1
    {
      OFFSET 0 25.6574 0.127663
      CHANNELS 3 Zrotation Xrotation Yrotation
      JOINT HEad
      {
        OFFSET 0 8.73416 0.011341
        CHANNELS 3 Zrotation Xrotation Yrotation
        End Site
        {
          OFFSET -0.29 12.7742 2.51395
        }
      }
      JOINT LeftShoulder1
      {
        OFFSET 8.99 -0.362252 -0.22
        CHANNELS 3 Zrotation Xrotation Yrotation
        JOINT LeftArm
        {
          OFFSET 10.2827 -0.00338 0.322123
          CHANNELS 3 Zrotation Xrotation Yrotation
          JOINT LeftForeArm
          {
            OFFSET 32.7669 0.099144 -1.42434
            CHANNELS 3 Zrotation Xrotation Yrotation
            JOINT LeftHand
            {
              OFFSET 27.5643 0.085362 1.02216
              CHANNELS 3 Zrotation Xrotation Yrotation
              End Site
              {
                OFFSET 16.7443 -0.6 1.50291
              }
            }
          }
        }
      }
      JOINT RightShoulder
      {
        OFFSET -8.99 -0.362252 -0.22
        CHANNELS 3 Zrotation Xrotation Yrotation
        JOINT RightArm
        {
          OFFSET -10.2827 -0.00338 0.322123
          CHANNELS 3 Zrotation Xrotation Yrotation
          JOINT RightForeArm
          {
            OFFSET -32.8971 0.099144 -1.42434
            CHANNELS 3 Zrotation Xrotation Yrotation
            JOINT RightHand
            {
              OFFSET -27.4921 0.085362 1.02216
              CHANNELS 3 Zrotation Xrotation Yrotation
              End Site
              {
                OFFSET -16.6312 -0.6 1.50291
              }
            }
          }
        }
      }
    }
  }
  JOINT LeftUpLeg
  {
    OFFSET 8.9458 -8.66707 0.101652
    CHANNELS 3 Zrotation Xrotation Yrotation
    JOINT LeftLeg
    {
      OFFSET 0 -44.4227 1.3727
      CHANNELS 3 Zrotation Xrotation Yrotation
      JOINT LeftFoot
      {
        OFFSET -0.253549 -42.0924 -1.46059
        CHANNELS 3 Zrotation Xrotation Yrotation
        JOINT LeftToes
        {
          OFFSET -0.04 -4.41509 8.4991
          CHANNELS 3 Zrotation Xrotation Yrotation
          End Site
          {
            OFFSET 0.08 -0.047448 9.77979
          }
        }
      }
    }
  }
}
MOTION
Frames:	6
Frame Time:	0.0166667
82.2936 80.3968 106.902 -11.295 1.50447 -146.308 -24.4448 -45.7526 -34.077 1.50621 81.4071 -8.46843 -23.1003 -3.89451 -2.38462 0.0462048 0.000533403 0.662642 -9.36229 14.5409 0.40992 0.0258575 0.0413598 -0.0503901 -5.18888 6.81153 -4.22008 -3.97569e-016 0 -0 -120.814 -19.7556 -72.0311 -124.084 51.1143 -7.89525 10.4828 32.2747 -0.970427 4.01259 20.3328 21.5498 -160.625 -25.0653 175.672 132.074 39.3226 4.03202 -6.84354 28.4069 -0.00483503 31.0832 -27.4538 -1.57172 -66.2481 66.627 48.2725 -24.8091 -4.82058 -5.73184 -1.32753e-009 1.55993e-007 -4.87459e-009 
86.9527 84.5603 105.483 -11.3909 0.985269 -143.367 -17.7753 -42.9895 -29.1199 -15.4746 75.4957 10.2259 -18.4563 -6.18641 -2.54287 0.0462048 0.000533403 0.662642 -11.025 13.2863 1.61629 0.0236879 0.0374 -0.04504 -3.02362 12.0541 -4.06595 3.97569e-016 -1.59028e-015 -6.36111e-015 -117.289 -19.065 -69.2359 -123.566 50.7713 -9.10381 9.78014 33.8439 -2.45044 1.3982 21.1773 24.2524 -154.112 -22.548 178.621 133.199 39.9188 3.49744 -8.32339 28.0402 -0.324341 27.8744 -22.6187 0.467629 -64.5863 67.5394 41.3883 -32.3251 -0.723088 -3.52629 -1.32753e-009 1.55993e-007 -4.8746e-009 
91.6464 89.4035 103.901 -11.0778 0.683669 -140.754 -10.4913 -39.5102 -23.2755 -20.7047 67.1486 16.7087 -13.5697 -7.67486 -2.89248 0.0462048 0.000533403 0.662642 -11.092 13.3337 1.74968 0.0880367 0.10812 -0.0725032 -1.92088 15.3063 -3.56131 7.95139e-016 -7.95139e-016 -9.54166e-015 -115.503 -18.8074 -68.2967 -123.361 50.4754 -10.2586 9.38172 31.7026 -1.55965 0.542791 20.5541 25.6423 -150.942 -21.5706 -179.53 134.44 40.5777 2.77587 -8.02094 28.3781 0.729538 22.9753 -20.0836 3.7372 -66.3168 69.5184 41.344 -19.5589 0.607709 -0.614083 -1.32753e-009 1.55993e-007 -4.87459e-009 
95.8058 93.387 102.868 -8.63023 0.786287 -137.489 -3.46897 -37.7504 -18.8046 -24.0358 59.5963 20.4428 -8.28258 -9.02569 -2.73545 0.0462048 0.000533403 0.662642 -7.98125 13.4893 -0.0816438 0.0820773 0.0989998 -0.0579228 -1.76097 17.0312 -2.89903 1.19271e-015 -2.38542e-015 -3.18055e-015 -115.135 -18.976 -68.6725 -123.528 50.2861 -11.2419 8.7811 32.867 -2.4402 1.2856 18.905 25.8096 -150.533 -22.0831 -178.261 135.6 41.2635 1.96568 -8.92349 28.1373 0.770939 20.3473 -17.3454 6.41706 -57.7292 70.2522 32.2335 -16.8308 2.8725 -0.105018 -1.32752e-009 1.55993e-007 -4.87459e-009 
99.3151 97.1175 102.19 -4.54966 1.2202 -133.637 3.6797 -36.7861 -14.6349 -25.8462 51.6716 21.7794 -2.45281 -9.60544 -2.02885 0.0462048 0.000533403 0.662642 -3.3457 12.3605 -2.92047 -0.000351094 0.01112 -0.0211188 -1.45654 18.4784 -2.49371 -2.20695e-032 -3.97569e-016 -3.18055e-015 -114.856 -19.4337 -68.9953 -123.841 50.2595 -12.0226 8.61333 31.6935 -2.25788 2.27108 17.4301 25.6243 -150.756 -22.9967 -177.511 136.6 41.8961 1.20068 -8.85407 28.4466 1.63833 18.2344 -15.2352 8.68882 -43.1523 68.4728 19.7983 -9.66447 3.44023 -0.00292749 -1.32753e-009 1.55993e-007 -4.8746e-009 
102.33 100.209 101.924 -1.11813 1.72215 -130.223 9.58421 -35.4771 -9.56511 -26.9553 44.2093 21.9582 3.58892 -9.53577 -0.928554 0.0462048 0.000533403 0.662642 0.623086 11.123 -5.39157 -0.00118087 0.00883999 -0.0164088 -0.1975 18.9439 -3.7639 -8.82781e-032 -1.59028e-015 -3.18055e-015 -115.191 -19.7489 -69.5774 -123.796 50.2817 -12.5431 8.36897 32.4706 -3.16281 8.83479 11.6085 14.1755 -158.184 -33.7661 176.06 137.831 42.303 0.798677 -9.23349 28.1955 1.76439 15.2048 -11.8632 11.1207 -25.4572 62.6622 6.806 -0.660205 2.81733 -0.37296 -1.32753e-009 1.55993e-007 -4.87459e-009 
